# xmcd
#
# Track frame offsets: 
#        150
#        18360
#        52782
#        88795
#        123277
#
# Disc length: 2141 seconds
#
# Revision: 7
# Processed by: cddbd v1.5.2PL0 Copyright (c) Steve Scherf et al.
# Submitted via: ExactAudioCopy v0.99pb5
#
DISCID=31085b05
DTITLE=Lisa Marie Experience - Keep On Jumpin'
DYEAR=1996
DGENRE=House
TTITLE0=Keep On Jumpin' (Bizarre Inc Remix Edit)
TTITLE1=Keep On Jumpin' (Bizarre Inc Remix)
TTITLE2=Keep On Jumpin' (The Lisa Marie Vocal Experience)
TTITLE3=Keep On Jumpin' (The Lisa Marie Sequential Dub)
TTITLE4=Keep On Jumpin' (The Lisa Marie Dub Sequential)
EXTD=
EXTT0=
EXTT1=
EXTT2=
EXTT3=
EXTT4=
PLAYORDER=
